<svg width="24" height="25" viewBox="0 0 24 25" fill="none" xmlns="http://www.w3.org/2000/svg">
<mask id="mask0_4410_793" style="mask-type:alpha" maskUnits="userSpaceOnUse" x="-1" y="0" width="25" height="25">
<rect x="-0.00585938" y="0.467529" width="24" height="24" fill="#D9D9D9"/>
</mask>
<g mask="url(#mask0_4410_793)">
<path d="M1.52949 20.7743C1.73544 22.0186 2.81648 22.9675 4.11914 22.9675H19.8691C21.3189 22.9675 22.4941 21.7923 22.4941 20.3425V15.342M1.52949 20.7743C1.50624 20.6339 1.49414 20.4897 1.49414 20.3425V4.59253C1.49414 3.14278 2.66939 1.96753 4.11914 1.96753H19.8691C21.3189 1.96753 22.4941 3.14278 22.4941 4.59253V15.342M1.52949 20.7743L6.54414 15.7597C7.43668 14.9787 8.74202 14.8933 9.72877 15.5511L10.3971 15.9966C11.3481 16.6306 12.6004 16.5763 13.493 15.8623L16.9686 13.0816C17.8546 12.3729 19.0886 12.3174 20.0303 12.9248C20.1347 12.9921 20.2276 13.0755 20.3154 13.1634L22.4941 15.342M10.6816 8.53003C10.6816 9.97982 9.50643 11.155 8.05664 11.155C6.60689 11.155 5.43164 9.97982 5.43164 8.53003C5.43164 7.08028 6.60689 5.90503 8.05664 5.90503C9.50643 5.90503 10.6816 7.08028 10.6816 8.53003Z" stroke="black" stroke-width="1.7" stroke-linecap="round" stroke-linejoin="round"/>
</g>
</svg>
