<svg width="63" height="83" viewBox="0 0 63 83" fill="none" xmlns="http://www.w3.org/2000/svg">
<rect x="0.461426" y="0.383789" width="62.1545" height="81.8993" fill="#F8F8F8"/>
<path fill-rule="evenodd" clip-rule="evenodd" d="M27.6593 50.8257C26.9783 50.5014 24.2115 47.4229 23.235 46.5966C21.9827 47.1911 15.085 55.0529 13.8445 55.5863C13.4347 50.308 13.7062 38.405 13.7098 32.457C13.7098 30.8104 14.0379 30.7592 15.6067 30.7592L47.9504 30.7609C49.1654 30.7609 51.5125 30.4328 52.1097 31.1981C52.4285 31.7007 52.4855 54.3102 52.1805 55.4735C51.8121 55.3365 52.0208 55.4217 51.7112 55.0917L50.3551 53.5506C49.7591 52.8656 49.2541 52.1453 48.6814 51.4049C48.4327 51.0834 46.8123 49.4289 45.9898 48.305C45.6714 47.8698 45.4019 47.6437 45.1007 47.2055L37.9672 38.7986C37.6681 38.9625 36.9089 39.7203 36.6425 40.0643L28.419 49.9992C28.1163 50.3457 27.8905 50.5926 27.6593 50.8259V50.8257ZM12.3787 43.7904C12.0128 42.8502 11.749 38.8826 11.5948 37.5112C10.8342 30.7455 10.3447 30.9955 12.5925 30.6472C12.0181 34.6289 12.6372 39.6179 12.3787 43.7904ZM25.7598 29.1768C26.0239 29.1469 26.3134 29.1329 26.5906 29.1017L38.3965 27.7774C40.6459 27.5316 42.8835 27.2616 45.1274 27.0198C49.4726 26.5515 49.2096 26.104 49.4914 29.4674L24.8128 29.4468L25.7598 29.177V29.1768ZM51.8024 29.5507L51.0477 29.4827C51.0189 29.4752 50.9716 29.447 50.9496 29.4396C50.929 29.4328 50.8897 29.4088 50.862 29.3898L50.6811 28.6737C50.863 24.4993 48.0369 25.3751 44.7582 25.7394L19.4903 28.5728C18.0017 28.731 12.0256 29.2171 11.0669 29.5919C9.67183 30.1372 9.59161 31.544 9.74657 32.8002L12.0777 53.6628C12.5454 57.78 13.7019 57.2372 17.8954 57.2372L50.5493 57.2408C52.1277 57.2479 53.1803 56.9293 53.514 55.5759C53.7689 54.5424 53.6385 35.6007 53.6132 32.3001C53.6011 30.7196 53.1895 29.7968 51.8026 29.5505L51.8024 29.5507Z" fill="#D7D7D7"/>
<path fill-rule="evenodd" clip-rule="evenodd" d="M24.1683 34.0697C19.214 34.822 20.3163 42.234 25.2695 41.502C27.128 41.2272 28.6927 39.4257 28.3902 37.2118C28.1505 35.4566 26.2954 33.7467 24.1683 34.0697Z" fill="#D7D7D7"/>
</svg>
