<svg width="17" height="18" viewBox="0 0 17 18" fill="none" xmlns="http://www.w3.org/2000/svg">
<mask id="mask0_2464_8725" style="mask-type:alpha" maskUnits="userSpaceOnUse" x="0" y="0" width="17" height="18">
<rect y="0.34375" width="16.625" height="17.3125" fill="#D9D9D9"/>
</mask>
<g mask="url(#mask0_2464_8725)">
<path fill-rule="evenodd" clip-rule="evenodd" d="M8.27611 1.03416C7.47921 2.07769 5.18819 3.7487 1.78446 2.93736C1.48241 2.86536 1.16737 3.03744 1.11403 3.34334C0.582369 6.39213 1.36075 12.5922 8.31196 16.9607C8.3127 16.9612 8.31326 16.962 8.31345 16.9628C8.31356 16.9633 8.31366 16.9637 8.31375 16.9642C8.31414 16.9662 8.31652 16.9674 8.31825 16.9664C8.31827 16.9664 8.31829 16.9663 8.31831 16.9663C8.31911 16.9658 8.32012 16.9659 8.32091 16.9664V16.9664C8.32256 16.9674 8.32487 16.9662 8.32523 16.9643C8.3253 16.9639 8.32538 16.9635 8.32546 16.9631C8.32564 16.9623 8.32618 16.9616 8.32691 16.9611C15.5743 12.5863 16.3766 6.37441 15.8184 3.33023C15.7632 3.02926 15.4536 2.86041 15.1556 2.9298C11.5792 3.76249 9.17683 2.06669 8.35445 1.02094C8.35334 1.01952 8.35239 1.01809 8.35151 1.01652L8.327 0.972822C8.32593 0.970922 8.32326 0.970764 8.32198 0.972528V0.972528C8.32081 0.974149 8.3184 0.974177 8.31719 0.972579C8.31716 0.97254 8.31713 0.972502 8.3171 0.972463C8.31577 0.9707 8.31308 0.970857 8.31196 0.972764L8.27611 1.03416Z" stroke="white"/>
</g>
</svg>
