<svg width="18" height="20" viewBox="0 0 18 20" fill="none" xmlns="http://www.w3.org/2000/svg">
<path d="M14.1477 7.36128C13.0822 7.36128 12.1321 6.85353 11.5243 6.06883L6.43532 8.91145C6.55456 9.25379 6.61995 9.62306 6.61995 10.0039C6.61995 10.3885 6.55456 10.754 6.43147 11.1001L11.5166 13.9389C12.1206 13.1504 13.0745 12.6388 14.1438 12.6388C15.9671 12.6388 17.4557 14.1236 17.4557 15.9507C17.4557 17.7778 15.971 19.2626 14.1438 19.2626C12.3167 19.2626 10.832 17.7778 10.832 15.9507C10.832 15.566 10.8973 15.1967 11.0204 14.8544L5.93911 12.0156C5.3352 12.808 4.38125 13.3158 3.3119 13.3158C1.48862 13.3158 0 11.831 0 10.0039C0 8.17675 1.48862 6.69197 3.31575 6.69197C4.38509 6.69197 5.33904 7.20357 5.9468 7.99596L11.032 5.15335C10.9089 4.80715 10.8396 4.43404 10.8396 4.04938C10.8396 2.2261 12.3244 0.737478 14.1515 0.737478C15.9787 0.737478 17.4634 2.22226 17.4634 4.04938C17.4634 5.8765 15.9748 7.36128 14.1477 7.36128ZM14.1477 18.2202C15.4017 18.2202 16.421 17.2008 16.421 15.9468C16.421 14.6928 15.4017 13.6735 14.1477 13.6735C12.8937 13.6735 11.8744 14.6928 11.8744 15.9468C11.8744 17.2008 12.8976 18.2202 14.1477 18.2202ZM3.31575 7.73055C2.06176 7.73055 1.04242 8.74989 1.04242 10.0039C1.04242 11.2579 2.06176 12.2772 3.31575 12.2772C4.56973 12.2772 5.58907 11.2579 5.58907 10.0039C5.58907 8.74989 4.56588 7.73055 3.31575 7.73055ZM14.1477 1.7799C12.8937 1.7799 11.8744 2.79924 11.8744 4.05322C11.8744 5.30721 12.8937 6.32655 14.1477 6.32655C15.4017 6.32655 16.421 5.30721 16.421 4.05322C16.421 2.79924 15.4017 1.7799 14.1477 1.7799Z" fill="white"/>
</svg>
