<svg width="25" height="25" viewBox="0 0 25 25" fill="none" xmlns="http://www.w3.org/2000/svg">
<mask id="mask0_4410_794" style="mask-type:alpha" maskUnits="userSpaceOnUse" x="0" y="0" width="25" height="25">
<rect x="0.118164" y="0.898438" width="24" height="24" fill="#D9D9D9"/>
</mask>
<g mask="url(#mask0_4410_794)">
<path d="M16.4827 14.9658L19.2944 16.564C20.1598 17.056 20.5925 17.3019 20.9486 17.2705C21.259 17.2431 21.5423 17.0912 21.7268 16.8531C21.9385 16.58 21.9385 16.1019 21.9385 15.1458V10.651C21.9385 9.69492 21.9385 9.21682 21.7268 8.94371C21.5423 8.70565 21.259 8.55369 20.9486 8.5263C20.5925 8.49487 20.1598 8.7408 19.2944 9.23274L16.4827 10.831M5.78952 6.6961H12.9911C14.2133 6.6961 14.8244 6.6961 15.2912 6.92145C15.7018 7.11962 16.0357 7.43593 16.2449 7.82492C16.4827 8.26715 16.4827 8.84613 16.4827 10.004V15.7928C16.4827 16.9507 16.4827 17.5296 16.2449 17.9719C16.0357 18.3609 15.7018 18.6772 15.2912 18.8754C14.8244 19.1007 14.2133 19.1007 12.9911 19.1007H5.78952C4.56733 19.1007 3.95622 19.1007 3.4894 18.8754C3.07877 18.6772 2.74493 18.3609 2.53571 17.9719C2.29785 17.5296 2.29785 16.9507 2.29785 15.7928V10.004C2.29785 8.84613 2.29785 8.26715 2.53571 7.82492C2.74493 7.43593 3.07877 7.11962 3.4894 6.92145C3.95622 6.6961 4.56731 6.6961 5.78952 6.6961Z" stroke="black" stroke-width="1.7" stroke-linecap="round" stroke-linejoin="round"/>
</g>
</svg>
