<svg width="26" height="26" viewBox="0 0 26 26" fill="none" xmlns="http://www.w3.org/2000/svg">
<path fill-rule="evenodd" clip-rule="evenodd" d="M16 5.38929C16 4.07099 14.929 3 13.6147 3C12.2984 3 11.2254 4.07099 11.2254 5.38929C11.2254 6.70759 12.2984 7.77858 13.6147 7.77858C14.929 7.77858 16 6.70759 16 5.38929ZM16 13.1676C16 11.8493 14.929 10.7783 13.6147 10.7783C12.2984 10.7783 11.2254 11.8493 11.2254 13.1676C11.2254 14.4859 12.2984 15.5569 13.6147 15.5569C14.929 15.5569 16 14.4859 16 13.1676ZM13.6147 18.5571C14.929 18.5571 16 19.6281 16 20.9464C16 22.2647 14.929 23.3357 13.6147 23.3357C12.2984 23.3357 11.2254 22.2647 11.2254 20.9464C11.2254 19.6281 12.2984 18.5571 13.6147 18.5571Z" fill="white"/>
</svg>
