<svg width="25" height="25" viewBox="0 0 25 25" fill="none" xmlns="http://www.w3.org/2000/svg">
<mask id="mask0_4410_795" style="mask-type:alpha" maskUnits="userSpaceOnUse" x="0" y="0" width="25" height="25">
<rect x="0.182129" y="0.82251" width="24" height="24" fill="#D9D9D9"/>
</mask>
<g mask="url(#mask0_4410_795)">
<path d="M20.1821 11.3984C20.1821 11.2904 20.0949 11.202 19.9882 11.202H18.5336C18.427 11.202 18.3397 11.2904 18.3397 11.3984C18.3397 14.8433 15.5833 17.635 12.1821 17.635C8.78092 17.635 6.02455 14.8433 6.02455 11.3984C6.02455 11.2904 5.93728 11.202 5.83061 11.202H4.37607C4.2694 11.202 4.18213 11.2904 4.18213 11.3984C4.18213 15.5406 7.25122 18.9584 11.2124 19.4422V21.9564H7.69001C7.35789 21.9564 7.09122 22.3076 7.09122 22.7422V23.6261C7.09122 23.7341 7.1591 23.8225 7.24152 23.8225H17.1227C17.2052 23.8225 17.273 23.7341 17.273 23.6261V22.7422C17.273 22.3076 17.0064 21.9564 16.6742 21.9564H13.0549V19.4544C17.0621 19.0125 20.1821 15.575 20.1821 11.3984ZM12.1821 15.5725C14.4585 15.5725 16.3033 13.7261 16.3033 11.4475V5.94751C16.3033 3.66894 14.4585 1.82251 12.1821 1.82251C9.90577 1.82251 8.06092 3.66894 8.06092 5.94751V11.4475C8.06092 13.7261 9.90577 15.5725 12.1821 15.5725ZM9.90334 5.94751C9.90334 4.7051 10.9191 3.68858 12.1821 3.68858C13.4452 3.68858 14.4609 4.7051 14.4609 5.94751V11.4475C14.4609 12.6899 13.4452 13.7064 12.1821 13.7064C10.9191 13.7064 9.90334 12.6899 9.90334 11.4475V5.94751Z" fill="white"/>
</g>
</svg>
