<svg width="63" height="82" viewBox="0 0 63 82" fill="none" xmlns="http://www.w3.org/2000/svg">
<rect x="0.619873" y="0.0932617" width="62.1545" height="81.8993" fill="#D9D9D9"/>
<rect x="0.619873" y="0.0932617" width="62.1545" height="81.8993" fill="#F8F8F8"/>
<g clip-path="url(#clip0_4427_721)">
<path d="M31.6765 51.5537C25.1823 51.5537 19.8982 46.2701 19.8982 39.7754C19.8982 39.0811 20.4611 38.5186 21.155 38.5186C21.8494 38.5186 22.4119 39.0815 22.4119 39.7754C22.4123 44.8839 26.5681 49.04 31.6765 49.04C36.7846 49.04 40.9408 44.8839 40.9408 39.7758C40.9408 39.0815 41.5033 38.519 42.1976 38.519C42.8919 38.519 43.4545 39.0819 43.4545 39.7758C43.4549 46.2701 38.1708 51.5537 31.6765 51.5537Z" fill="#D7D7D7"/>
<path d="M31.6765 47.4048C27.5053 47.4048 24.0925 43.9919 24.0925 39.8207V30.3557C24.0925 26.1845 27.5053 22.7717 31.6765 22.7717C35.8477 22.7717 39.2605 26.1845 39.2605 30.3557V39.8203C39.2605 43.9915 35.8477 47.4048 31.6765 47.4048Z" fill="#D7D7D7"/>
<path d="M31.6765 58.953C30.9822 58.953 30.4197 58.3905 30.4197 57.6962V50.6155C30.4197 49.9212 30.9826 49.3586 31.6765 49.3586C32.3708 49.3586 32.9334 49.9212 32.9334 50.6155V57.6962C32.9334 58.3905 32.3708 58.953 31.6765 58.953Z" fill="#D7D7D7"/>
<path d="M35.915 59.2725H27.438C26.7437 59.2725 26.1812 58.7099 26.1812 58.0156C26.1812 57.3213 26.7441 56.7588 27.438 56.7588H35.9146C36.609 56.7588 37.1715 57.3213 37.1715 58.0156C37.1715 58.7099 36.6094 59.2725 35.915 59.2725Z" fill="#D7D7D7"/>
</g>
<defs>
<clipPath id="clip0_4427_721">
<rect width="36.948" height="36.948" fill="white" transform="translate(13.2231 22.5688)"/>
</clipPath>
</defs>
</svg>
