<svg width="63" height="83" viewBox="0 0 63 83" fill="none" xmlns="http://www.w3.org/2000/svg">
<rect x="0.52478" y="0.740356" width="62.1545" height="81.8993" fill="#F8F8F8"/>
<g clip-path="url(#clip0_4398_807)">
<path fill-rule="evenodd" clip-rule="evenodd" d="M17.2164 49.3674C17.4695 50.9162 18.7859 51.3299 20.1157 51.3323C22.0045 51.3358 33.5977 51.4324 34.4529 51.2796C35.8966 51.0216 36.4099 50.044 36.4141 48.388L36.4119 38.8027C36.4119 35.0106 37.2357 32.0585 33.5103 32.0469C31.6107 32.0411 20.0487 31.9539 19.1655 32.0918C17.7681 32.31 17.1732 33.4251 17.17 34.9925C17.1661 36.8989 17.0742 48.4975 17.2164 49.3674Z" fill="#D7D7D7"/>
<path fill-rule="evenodd" clip-rule="evenodd" d="M38.0252 45.7209C38.4457 45.893 39.194 46.4612 39.5947 46.7211C41.8967 48.2142 44.5627 51.0143 45.8314 48.9123C46.1843 48.3275 46.0356 47.3752 46.0353 46.6646L46.0353 36.5913C46.0359 35.8335 46.1754 34.8783 45.7296 34.3214C45.4276 33.9442 44.8029 33.5364 44.0376 33.7368C43.2114 33.9533 38.9242 37.2866 38.0212 37.6588L38.0252 45.7209H38.0252Z" fill="#D7D7D7"/>
</g>
<defs>
<clipPath id="clip0_4398_807">
<rect width="28.9294" height="19.3513" fill="white" transform="translate(17.1373 32.0144)"/>
</clipPath>
</defs>
</svg>
